<svg width="20" height="21" viewBox="0 0 20 21" fill="none" xmlns="http://www.w3.org/2000/svg">
<g clip-path="url(#clip0_995_10876)">
<path d="M17.1319 1.2356H13.9601C13.7916 0.932555 13.549 0.680638 13.2565 0.505118C12.9641 0.329599 12.6321 0.23665 12.2939 0.235596H8.42354C8.08536 0.23665 7.75339 0.329599 7.46094 0.505118C7.16849 0.680638 6.92584 0.932555 6.75734 1.2356H3.58558C3.07233 1.2356 2.58011 1.44631 2.21719 1.82138C1.85428 2.19645 1.65039 2.70516 1.65039 3.2356V18.2356C1.65039 18.766 1.85428 19.2747 2.21719 19.6498C2.58011 20.0249 3.07233 20.2356 3.58558 20.2356H17.1319C17.6451 20.2356 18.1373 20.0249 18.5003 19.6498C18.8632 19.2747 19.0671 18.766 19.0671 18.2356V3.2356C19.0671 2.70516 18.8632 2.19645 18.5003 1.82138C18.1373 1.44631 17.6451 1.2356 17.1319 1.2356ZM12.2939 2.2356V4.2356H8.42354V2.2356H12.2939ZM17.1319 18.2356H3.58558V3.2356H6.48835V4.2356C6.23173 4.2356 5.98562 4.34095 5.80416 4.52849C5.6227 4.71603 5.52076 4.97038 5.52076 5.2356C5.52076 5.50081 5.6227 5.75517 5.80416 5.9427C5.98562 6.13024 6.23173 6.2356 6.48835 6.2356H14.2291C14.4857 6.2356 14.7318 6.13024 14.9133 5.9427C15.0947 5.75517 15.1967 5.50081 15.1967 5.2356C15.1967 4.97038 15.0947 4.71603 14.9133 4.52849C14.7318 4.34095 14.4857 4.2356 14.2291 4.2356V3.2356H17.1319V18.2356Z" fill="url(#paint0_linear_995_10876)"/>
<path d="M9.41435 14.6646C9.16131 14.6662 8.91789 14.5645 8.73704 14.3816L6.77863 12.4176C6.6874 12.3257 6.61458 12.2161 6.56433 12.0951C6.51408 11.9741 6.48738 11.844 6.48576 11.7123C6.48415 11.5806 6.50764 11.4499 6.5549 11.3276C6.60216 11.2054 6.67227 11.0939 6.76121 10.9996C6.85016 10.9053 6.95621 10.83 7.0733 10.7781C7.19038 10.7262 7.31623 10.6986 7.44363 10.6969C7.57104 10.6952 7.69752 10.7195 7.81584 10.7684C7.93417 10.8172 8.04203 10.8897 8.13326 10.9816L9.41822 12.2706L12.5919 9.0896C12.6822 8.99389 12.7902 8.91786 12.9094 8.866C13.0286 8.81414 13.1566 8.78751 13.286 8.78768C13.4153 8.78785 13.5433 8.81481 13.6624 8.86698C13.7815 8.91915 13.8892 8.99546 13.9793 9.09141C14.0693 9.18735 14.1398 9.30098 14.1867 9.42558C14.2335 9.55018 14.2557 9.68322 14.2519 9.81683C14.2482 9.95044 14.2185 10.0819 14.1647 10.2035C14.1109 10.325 14.0341 10.4342 13.9388 10.5246L10.0926 14.3816C9.91108 14.564 9.66757 14.6656 9.41435 14.6646Z" fill="url(#paint1_linear_995_10876)"/>
</g>
<defs>
<linearGradient id="paint0_linear_995_10876" x1="1.65039" y1="10.2356" x2="19.0671" y2="10.2356" gradientUnits="userSpaceOnUse">
<stop stop-color="#5DBB46"/>
<stop offset="1" stop-color="#5DE374"/>
</linearGradient>
<linearGradient id="paint1_linear_995_10876" x1="1.65039" y1="10.2356" x2="19.0671" y2="10.2356" gradientUnits="userSpaceOnUse">
<stop stop-color="#5DBB46"/>
<stop offset="1" stop-color="#5DE374"/>
</linearGradient>
<clipPath id="clip0_995_10876">
<rect width="19" height="20" fill="white" transform="translate(0.858887 0.235596)"/>
</clipPath>
</defs>
</svg>
