<svg width="35" height="34" viewBox="0 0 35 34" fill="none" xmlns="http://www.w3.org/2000/svg">
<path fill-rule="evenodd" clip-rule="evenodd" d="M29.9338 9.14207C31.6867 9.14206 33.2667 8.08769 33.9361 6.47125C34.6055 4.85481 34.2323 2.99513 32.9907 1.76051C31.7492 0.525883 29.8841 0.159835 28.2664 0.833273C26.6487 1.50671 25.5974 3.0868 25.6033 4.83579C25.6114 7.21646 27.5479 9.14208 29.9338 9.14207ZM29.9338 2.96925C30.967 2.96925 31.8045 3.80493 31.8045 4.83579C31.8045 5.86666 30.967 6.70234 29.9338 6.70234C28.9007 6.70234 28.0632 5.86666 28.0632 4.83579C28.0632 3.80493 28.9007 2.96925 29.9338 2.96925ZM3.39101 23.8246C3.39101 28.704 6.08653 31.3789 10.9621 31.3789C11.6421 31.3868 12.1914 31.935 12.1993 32.6135C12.1913 33.2896 11.6397 33.8334 10.9621 33.8333C4.77559 33.8333 0.931152 29.9974 0.931152 23.8246V11.817C0.931152 5.62944 4.77559 1.79348 10.9621 1.79348H21.8031C22.4807 1.80153 23.0257 2.35191 23.0256 3.02804C23.0257 3.35413 22.8948 3.66666 22.6624 3.89585C22.4299 4.12505 22.1151 4.25184 21.7884 4.24791H10.9621C6.08653 4.24791 3.39101 6.93749 3.39101 11.817V23.8246ZM20.7131 20.6206C20.5067 20.8747 20.2124 21.0425 19.8882 21.0909C19.5656 21.1236 19.2429 21.0286 18.9897 20.8263L14.4677 17.2843L10.4023 22.5606C10.2085 22.8238 9.91695 22.9984 9.59303 23.0453C9.26912 23.0923 8.93985 23.0077 8.67896 22.8104C8.14651 22.3939 8.04809 21.6279 8.45801 21.0909L13.2746 14.8299C13.4755 14.5703 13.7717 14.4012 14.0978 14.3598C14.4239 14.3184 14.7531 14.4083 15.0127 14.6094L19.5347 18.1514L23.5117 13.0809C23.9483 12.6668 24.6221 12.6316 25.0996 12.9981C25.577 13.3645 25.7158 14.0234 25.4266 14.5506L20.7131 20.6206ZM31.8634 11.817C31.1882 11.817 30.6409 12.3631 30.6409 13.0368V23.8246C30.5967 28.704 27.9012 31.3789 23.0256 31.3789H18.1059C17.4259 31.3868 16.8766 31.9349 16.8686 32.6135C16.8767 33.2896 17.4283 33.8334 18.1059 33.8333H23.0256C29.2121 33.8333 33.0713 29.9974 33.0713 23.8246V13.0368C33.0713 12.3688 32.5329 11.825 31.8634 11.817Z" fill="url(#paint0_linear_995_10813)"/>
<defs>
<linearGradient id="paint0_linear_995_10813" x1="0.931152" y1="17.1667" x2="34.2645" y2="17.1667" gradientUnits="userSpaceOnUse">
<stop stop-color="#5DBB46"/>
<stop offset="1" stop-color="#5DE374"/>
</linearGradient>
</defs>
</svg>
