<svg width="35" height="33" viewBox="0 0 35 33" fill="none" xmlns="http://www.w3.org/2000/svg">
<path fill-rule="evenodd" clip-rule="evenodd" d="M27.7656 4.35642H24.4939C24.1839 1.93308 22.1089 0.0547485 19.6039 0.0547485H15.3006C12.7956 0.0547485 10.7206 1.93142 10.4106 4.35475L7.15561 4.35642C3.64728 4.35642 0.793945 7.20308 0.793945 10.7014V16.4797C0.793945 16.8997 1.00395 17.2914 1.35561 17.5231C4.78728 19.7881 8.84894 21.2964 13.1006 21.8881C13.7323 21.9814 14.3123 21.5864 14.4789 20.9797C14.8506 19.6281 16.0423 18.7197 17.4439 18.7197C18.8306 18.7197 20.0339 19.6481 20.3706 20.9731C20.5123 21.5331 21.0173 21.9164 21.5806 21.9164C21.6389 21.9164 21.6956 21.9131 21.7539 21.9047C26.0339 21.3131 30.1139 19.7964 33.5506 17.5231C33.9006 17.2897 34.1106 16.8997 34.1106 16.4797V10.7014C34.1106 7.20308 31.2639 4.35642 27.7656 4.35642ZM31.6106 15.7964C28.8723 17.4981 25.7156 18.6897 22.3923 19.2747C21.4789 17.4297 19.5789 16.2197 17.4439 16.2197C15.3256 16.2197 13.4173 17.4264 12.4789 19.2597C9.17561 18.6781 6.02895 17.4931 3.29395 15.7964V10.7014C3.29395 8.58142 5.02561 6.85642 7.15728 6.85642L11.6206 6.85308C11.9539 6.85308 12.2706 6.72142 12.5056 6.48641C12.7389 6.24975 12.8706 5.93308 12.8706 5.60142L12.8689 4.98475C12.8689 3.64475 13.9606 2.55475 15.3006 2.55475H19.6039C20.7256 2.55475 21.6739 3.31975 21.9523 4.35642H17.4523C16.7623 4.35642 16.2023 4.91642 16.2023 5.60642C16.2023 6.29641 16.7623 6.85642 17.4523 6.85642H27.7656C29.8856 6.85642 31.6106 8.58142 31.6106 10.7014V15.7964ZM18.7019 22.3604V24.5171C18.7019 25.2071 18.1419 25.7671 17.4519 25.7671C16.7619 25.7671 16.2019 25.2071 16.2019 24.5171V22.3604C16.2019 21.6704 16.7619 21.1104 17.4519 21.1104C18.1419 21.1104 18.7019 21.6704 18.7019 22.3604ZM32.8189 21.2636C32.1639 21.2636 31.6423 21.7736 31.5923 22.4136C31.5923 22.4136 31.3356 25.3286 31.2823 26.2486C31.2206 27.2669 30.8073 28.3752 30.2289 29.0702C29.4139 30.0536 28.5106 30.4386 27.0073 30.4419C26.0206 30.4436 20.6989 30.4452 16.6789 30.4452C15.9873 30.4452 15.4273 31.0052 15.4273 31.6952C15.4273 32.3853 15.9873 32.9452 16.6773 32.9452C20.5573 32.9452 26.0806 32.9436 27.0123 32.9419C29.2356 32.9369 30.8706 32.2136 32.1539 30.6669C33.0756 29.5569 33.6823 27.9619 33.7773 26.3986C33.8151 25.7557 33.9442 24.0882 34.0162 23.1591L34.0162 23.1586C34.0457 22.7776 34.0656 22.5209 34.0656 22.5102C34.0656 21.8219 33.5073 21.2636 32.8189 21.2636ZM7.89761 30.4416C8.22428 30.4432 8.90094 30.4432 9.78928 30.4432C10.4793 30.4432 11.0443 31.0032 11.0443 31.6932C11.0443 32.3832 10.4776 32.9432 9.78594 32.9432C8.88595 32.9432 8.22928 32.9432 7.89428 32.9416C5.66928 32.9366 4.03428 32.2132 2.75095 30.6649C1.83095 29.5566 1.22261 27.9616 1.12928 26.3982C1.09084 25.7646 0.964488 24.1354 0.891876 23.1991C0.860588 22.7957 0.839279 22.521 0.839279 22.5099C0.839279 21.8216 1.39761 21.2632 2.08595 21.2632C2.74095 21.2632 3.26095 21.7732 3.31261 22.4149C3.31261 22.4149 3.56928 25.3299 3.62428 26.2482C3.68595 27.2666 4.09761 28.3749 4.67595 29.0682C5.49261 30.0549 6.39595 30.4382 7.89761 30.4416Z" fill="url(#paint0_linear_995_10753)"/>
<defs>
<linearGradient id="paint0_linear_995_10753" x1="0.793945" y1="16.5" x2="34.1106" y2="16.5" gradientUnits="userSpaceOnUse">
<stop stop-color="#5DBB46"/>
<stop offset="1" stop-color="#5DE374"/>
</linearGradient>
</defs>
</svg>
