<svg width="34" height="33" viewBox="0 0 34 33" fill="none" xmlns="http://www.w3.org/2000/svg">
<path fill-rule="evenodd" clip-rule="evenodd" d="M25.9361 1.00451C28.6264 1.84115 30.8635 3.76292 32.1273 6.32304C33.605 9.42596 33.8062 13.0014 32.6861 16.256C31.6552 19.2521 29.965 21.9682 27.7449 24.1963C26.2893 25.6924 24.7207 27.07 23.0537 28.3163L22.9655 28.3912C22.4116 28.7641 21.6669 28.6176 21.289 28.0616C21.0969 27.7931 21.0197 27.4567 21.0751 27.1293C21.1306 26.8018 21.3138 26.5112 21.5831 26.3237C23.1473 25.1451 24.6221 23.848 25.9949 22.4434C27.9719 20.4979 29.4817 18.1139 30.4067 15.4769C31.2964 12.8493 31.1163 9.9681 29.9067 7.47664C28.9333 5.51667 27.2181 4.04525 25.1567 3.40159C22.5272 2.56396 19.6626 3.07175 17.4654 4.76494C17.0286 5.09457 16.4316 5.09457 15.9948 4.76494C13.7987 3.06939 10.9329 2.5614 8.30361 3.40159C6.22829 4.03103 4.49608 5.49801 3.50946 7.46166C2.32712 9.95128 2.15798 12.8159 3.03887 15.432C3.9678 18.0626 5.47717 20.4409 7.45066 22.3835C10.3667 25.232 13.5822 27.7442 17.039 29.8744C17.4786 30.1851 17.6719 30.7488 17.5179 31.2708C17.3638 31.7928 16.8974 32.1545 16.3625 32.1666C16.1213 32.1681 15.8855 32.0949 15.686 31.9569C12.0851 29.7382 8.73631 27.1205 5.70065 24.1514C3.46824 21.9306 1.77183 19.2126 0.74474 16.211C-0.336622 12.9609 -0.114646 9.40729 1.36239 6.32304C2.62619 3.76292 4.86328 1.84115 7.55361 1.00451C10.6468 0.0311761 14.0028 0.479741 16.7448 2.23301C19.4869 0.479741 22.8429 0.0311761 25.9361 1.00451ZM24.7302 12.4806C24.6687 11.096 23.7637 9.89857 22.4655 9.4842C21.9828 9.1772 21.7684 8.57402 21.9463 8.02337C22.1241 7.47272 22.6482 7.11707 23.2155 7.16202C25.4083 7.86721 26.9691 9.84742 27.1714 12.1809C27.2128 12.5072 27.1241 12.8368 26.9251 13.0958C26.7261 13.3549 26.4334 13.5218 26.1125 13.5592C25.439 13.6479 24.8216 13.1661 24.7302 12.4806Z" fill="url(#paint0_linear_995_10836)"/>
<defs>
<linearGradient id="paint0_linear_995_10836" x1="0.0683594" y1="16.3333" x2="33.4017" y2="16.3333" gradientUnits="userSpaceOnUse">
<stop stop-color="#5DBB46"/>
<stop offset="1" stop-color="#5DE374"/>
</linearGradient>
</defs>
</svg>
